# xmcd CD database file
#
# Track frame offsets:
#	150
#	20003
#	35297
#	52769
#	68399
#	85317
#	99871
#	116378
#	132192
#	147414
#
# Disc length: 2174 seconds
#
# Revision: 0
# Processed by: cddbd v1.4PL0 Copyright (c) Steve Scherf et al.
# Submitted via: CDex 1.50
#
DISCID=75087c0a
DTITLE=Brady Seals - Thompson Street
DYEAR=2003
DGENRE=Country
TTITLE0=Thompson Street
TTITLE1=Things have gotta change
TTITLE2=Soon
TTITLE3=Breakin' down
TTITLE4=Free love
TTITLE5=Let me be your man
TTITLE6=All i want
TTITLE7=That's how it goes
TTITLE8=10987654321 
TTITLE9=Our Last Goodbye
EXTD=YEAR: 2003
EXTT0=
EXTT1=
EXTT2=
EXTT3=
EXTT4=
EXTT5=
EXTT6=
EXTT7=
EXTT8=
EXTT9=
PLAYORDER=
